<svg width="24" height="24" viewBox="0 0 24 24" fill="none" xmlns="http://www.w3.org/2000/svg">
<path fill-rule="evenodd" clip-rule="evenodd" d="M16.2427 7.75725C16.6332 8.14777 16.6332 8.78094 16.2427 9.17146L13.4142 11.9999L16.2427 14.8283C16.6332 15.2188 16.6332 15.852 16.2427 16.2425C15.8521 16.6331 15.219 16.6331 14.8284 16.2425L12 13.4141L9.17158 16.2425C8.78106 16.6331 8.1479 16.6331 7.75737 16.2425C7.36685 15.852 7.36685 15.2188 7.75737 14.8283L10.5858 11.9999L7.75737 9.17146C7.36685 8.78094 7.36685 8.14777 7.75737 7.75725C8.14789 7.36673 8.78106 7.36673 9.17158 7.75725L12 10.5857L14.8284 7.75725C15.219 7.36672 15.8521 7.36672 16.2427 7.75725Z" fill="#CACACA"/>
</svg>
