<svg width="38" height="38" viewBox="0 0 38 38" fill="none" xmlns="http://www.w3.org/2000/svg">
<rect x="0.5" y="0.5" width="37" height="37" rx="7.5" fill="#3C3C3C"/>
<rect x="0.5" y="0.5" width="37" height="37" rx="7.5" stroke="white"/>
<path d="M22.1413 25.5407C16.8068 25.5407 12.483 21.2164 12.483 15.8808C12.483 12.2024 14.5625 9.04318 17.5874 7.41211C11.8515 8.13826 7.41211 13.0257 7.41211 18.9595C7.41211 25.3933 12.6284 30.6117 19.0635 30.6117C24.9967 30.6117 29.8839 26.1707 30.6111 20.4352C28.9795 23.4618 25.819 25.5407 22.1413 25.5407Z" fill="#CACACA"/>
<path d="M23.3316 21.7265L25.3754 20.6514L27.4193 21.7265L27.0287 19.4506L28.6814 17.8395L26.3971 17.5075L25.3754 15.4373L24.3532 17.5075L22.0696 17.8395L23.7222 19.4506L23.3316 21.7265Z" fill="#CACACA"/>
</svg>
